
<?xml version="1.0"?>
<svg xmlns="http://www.w3.org/2000/svg" viewBox="-46 0 512 512" width="512px" height="512px"><path d="m350 366c-5.519531 0-10 4.480469-10 10s4.480469 10 10 10 10-4.480469 10-10-4.480469-10-10-10zm0 0" fill="currentColor"/><path d="m49.558594 206.648438c5.519531 0 10-4.476563 10-10 0-5.519532-4.480469-10-10-10-5.519532 0-10 4.480468-10 10 0 5.523437 4.480468 10 10 10zm0 0" fill="currentColor"/><path d="m50 226.648438c-5.523438 0-10 4.480468-10 10v60c0 5.523437 4.476562 10 10 10s10-4.476563 10-10v-60c0-5.519532-4.476562-10-10-10zm0 0" fill="currentColor"/><path d="m150 0c-5.523438 0-10 4.476562-10 10v492c0 5.523438 4.476562 10 10 10h100c5.523438 0 10-4.476562 10-10v-492c0-5.523438-4.476562-10-10-10zm90 66h-30c-5.523438 0-10 4.476562-10 10s4.476562 10 10 10h30v40h-30c-5.523438 0-10 4.476562-10 10s4.476562 10 10 10h30v40h-30c-5.523438 0-10 4.476562-10 10s4.476562 10 10 10h30v40h-30c-5.523438 0-10 4.476562-10 10s4.476562 10 10 10h30v40h-30c-5.523438 0-10 4.476562-10 10s4.476562 10 10 10h30v40h-30c-5.523438 0-10 4.476562-10 10s4.476562 10 10 10h30v40h-30c-5.523438 0-10 4.476562-10 10s4.476562 10 10 10h30v46h-80v-472h80zm0 0" fill="currentColor"/><path d="m378.28125 11.71875c-7.558594-7.558594-17.601562-11.71875-28.28125-11.71875-22.054688 0-40 17.945312-40 40v247.703125c-11.390625 4.019531-20 14.964844-20 28.296875 0 11.347656 6.335938 21.242188 15.652344 26.339844l-24.597656 49.1875c-1.488282 2.980468-1.398438 6.503906.242187 9.398437 14.535156 25.679688 45.113281 79.699219 60 106 1.730469 3.054688 5.0625 5.074219 8.703125 5.074219 2.011719 0 4.152344-.640625 5.957031-1.980469 1.816407-1.351562 2.433594-2.675781 2.832031-3.246093.003907-.003907.003907-.007813.007813-.007813l59.90625-105.839844c1.640625-2.894531 1.730469-6.417969.242187-9.398437l-24.589843-49.175782c9.25-5.0625 15.644531-14.878906 15.644531-26.351562 0-13.035156-8.359375-24.152344-20-28.28125v-247.71875c0-10.679688-4.160156-20.726562-11.71875-28.28125zm-48.28125 28.28125c0-11.027344 8.972656-20 20-20 5.339844 0 10.359375 2.082031 14.140625 5.859375 3.777344 3.78125 5.859375 8.800781 5.859375 14.140625v246h-40zm-10 266h60c5.515625 0 10 4.484375 10 10 0 5.519531-4.480469 10-10 10h-60c-5.515625 0-10-4.484375-10-10 0-5.519531 4.480469-10 10-10zm78.675781 89.710938-38.675781 68.320312v-48.03125c0-5.523438-4.476562-10-10-10s-10 4.476562-10 10v48.03125l-38.675781-68.320312 24.855469-49.710938h47.640624zm0 0" fill="currentColor"/><path d="m0 30v386c0 1.457031.316406 2.894531.933594 4.21875l40 86c1.640625 3.523438 5.175781 5.78125 9.066406 5.78125s7.425781-2.257812 9.066406-5.78125l40-86c.613282-1.320312.933594-2.761719.933594-4.21875v-386c0-16.542969-13.457031-30-30-30h-40c-16.542969 0-30 13.457031-30 30zm50 448.289062-28.507812-61.289062h57.015624zm30-81.289062h-60v-270h60zm0-290h-60v-20h60zm0-77v37h-60v-37c0-5.515625 4.484375-10 10-10h40c5.515625 0 10 4.484375 10 10zm0 0" fill="currentColor"/></svg>
