<?xml version="1.0" encoding="UTF-8"?><!DOCTYPE svg PUBLIC "-//W3C//DTD SVG 1.1//EN" "http://www.w3.org/Graphics/SVG/1.1/DTD/svg11.dtd"><svg xmlns="http://www.w3.org/2000/svg"><symbol id="doughnut" viewBox="0 0 57.008 57.008"><path d="M57 24.004h-.077c0-11.046-12.76-20-28.5-20S0 12.958 0 24.004l.016 9.438c0 11.046 12.667 19.563 28.408 19.563s28.585-8.923 28.585-19.969L57 24.004zm-28 5c-4.524 0-8.342-1.804-9.577-4.277 2.672-1.202 5.98-1.923 9.577-1.923s6.905.721 9.577 1.923C37.342 27.2 33.524 29.004 29 29.004z" fill="#fbd490"/><path d="M0 24.004l.011 6.608A1.5 1.5 0 0 0 1.5 32.004a1.5 1.5 0 0 0 1.484-1.339.265.265 0 0 0 .016.017v4.821c0 .825.675 1.5 1.5 1.5s1.5-.675 1.5-1.5v4c0 .825.675 1.5 1.5 1.5s1.5-.675 1.5-1.5v-2c0 .825.675 1.5 1.5 1.5s1.5-.675 1.5-1.5v5c0 .825.675 1.5 1.5 1.5s1.5-.675 1.5-1.5v-2c0 .825.675 1.5 1.5 1.5s1.5-.675 1.5-1.5v3.5c0 1.1.9 2 2 2s2-.9 2-2v-1.5c0 .825.675 1.5 1.5 1.5s1.5-.675 1.5-1.5v3.5c0 1.1.9 2 2 2s2-.9 2-2v-4c0 1.1.9 2 2 2s2-.9 2-2v1.5c0 .825.675 1.5 1.5 1.5s1.5-.675 1.5-1.5v-3.5c0 1.1.9 2 2 2s2-.9 2-2v3.5c0 .825.675 1.5 1.5 1.5s1.5-.675 1.5-1.5v-5c0 .825.675 1.5 1.5 1.5s1.5-.675 1.5-1.5v1c0 .825.675 1.5 1.5 1.5s1.5-.675 1.5-1.5v-4c0 .825.675 1.5 1.5 1.5s1.5-.675 1.5-1.5v-3c0 .825.676 1.532 1.5 1.5 2.927-.115 3.464-3.887 3.503-6.821l-.001-.916c-.018-1.03-.079-1.869-.079-2.263 0-11.046-12.76-20-28.5-20S0 12.958 0 24.004zm29-1.2c3.597 0 6.905.721 9.577 1.923-1.235 2.473-5.053 4.277-9.577 4.277s-8.342-1.804-9.577-4.277c2.672-1.202 5.98-1.923 9.577-1.923z" fill="#d85c81"/><path d="M29.088 17.004c-5.523 0-10 2.686-10 6 0 .599.161 1.173.435 1.718 2.67-1.199 5.973-1.918 9.565-1.918s6.894.719 9.565 1.918c.274-.545.435-1.119.435-1.718 0-3.314-4.477-6-10-6z" fill="#fbd490"/><path d="M12.476 28.588a1 1 0 0 1-.261-1.965l4.317-1.168a1 1 0 0 1 .523 1.93l-4.317 1.168a.994.994 0 0 1-.262.035z" fill="#a4e869"/><path d="M28.301 36.075a1 1 0 0 1-.316-.052l-3-1a.999.999 0 0 1-.632-1.265.998.998 0 0 1 1.265-.632l3 1a.999.999 0 0 1-.317 1.949z" fill="#fff"/><path d="M47.635 28.904a1 1 0 0 1-1-1v-4a1 1 0 1 1 2 0v4a1 1 0 0 1-1 1z" fill="#a4e869"/><path d="M24.042 12.514a.996.996 0 0 1-.744-.332l-2.114-2.353a1 1 0 0 1 1.487-1.336l2.114 2.353a1 1 0 0 1-.743 1.668zM49.868 18.504a1 1 0 0 1-.316-.052l-3-1a.999.999 0 0 1-.632-1.265.998.998 0 0 1 1.265-.632l3 1a.999.999 0 0 1-.317 1.949z" fill="#48a0dc"/><path d="M35.927 33.262l-.06-.002a1 1 0 0 1-.939-1.057l.083-1.411a1.006 1.006 0 0 1 1.057-.939 1 1 0 0 1 .939 1.057l-.083 1.411a1 1 0 0 1-.997.941z" fill="#a4e869"/><path d="M43.801 35.575a.997.997 0 0 1-.707-.293l-1-1a.999.999 0 1 1 1.414-1.414l1 1a.999.999 0 0 1-.707 1.707z" fill="#d75a4a"/><path d="M15.635 36.075a.997.997 0 0 1-.707-.293l-1-1a.999.999 0 1 1 1.414-1.414l1 1a.999.999 0 0 1-.707 1.707z" fill="#48a0dc"/><path d="M43.831 13.544a1 1 0 0 1-.998-.956l-.062-1.413a1 1 0 0 1 1.998-.088l.062 1.413a1 1 0 0 1-.956 1.043l-.044.001z" fill="#a4e869"/><g fill="#d75a4a"><path d="M11.948 13.759l1 4M12.947 18.759a1 1 0 0 1-.969-.758l-1-4a1 1 0 1 1 1.941-.484l1 4a1 1 0 0 1-.972 1.242z"/></g><path d="M8.135 24.304a.997.997 0 0 1-.707-.293l-1-1a.999.999 0 1 1 1.414-1.414l1 1a.999.999 0 0 1-.707 1.707z" fill="#fbd490"/><path d="M36.968 13.337a.997.997 0 0 1-.707-.293l-1-1a.999.999 0 1 1 1.414-1.414l1 1a.999.999 0 0 1-.707 1.707z" fill="#d75a4a"/></symbol></svg>